<svg width="20" height="22" viewBox="0 0 20 22" fill="none" xmlns="http://www.w3.org/2000/svg">
<path d="M3.07595 4.60738L4.86105 5.13456C6.01024 5.47394 7.20936 4.78163 7.49004 3.61671L7.92656 1.80501C8.59372 1.65522 9.28763 1.57617 10 1.57617C10.7124 1.57617 11.4063 1.65522 12.0734 1.80501L12.51 3.61671C12.7906 4.78163 13.9898 5.47394 15.1389 5.13456L16.924 4.60738C17.8619 5.62276 18.5793 6.84488 19 8.19768L17.6489 9.48193C16.7804 10.3075 16.7804 11.6921 17.6489 12.5176L19 13.8019C18.5793 15.1547 17.8619 16.3768 16.924 17.3922L15.1389 16.865C13.9898 16.5256 12.7906 17.2179 12.51 18.3828L12.0734 20.1945C11.4063 20.3443 10.7124 20.4234 10 20.4234C9.28763 20.4234 8.59372 20.3443 7.92657 20.1945L7.49004 18.3828C7.20936 17.2179 6.01025 16.5256 4.86105 16.865L3.07595 17.3922C2.13807 16.3768 1.42073 15.1547 1 13.8019L2.35109 12.5176C3.2196 11.6921 3.21961 10.3075 2.3511 9.48193L1 8.19768C1.42073 6.84488 2.13807 5.62276 3.07595 4.60738Z" stroke="#555555" stroke-width="1.4" stroke-linejoin="round"/>
<path d="M13.1412 10.9998C13.1412 12.7346 11.7348 14.141 10 14.141C8.26516 14.141 6.8588 12.7346 6.8588 10.9998C6.8588 9.26494 8.26516 7.85858 10 7.85858C11.7348 7.85858 13.1412 9.26494 13.1412 10.9998Z" stroke="#555555" stroke-width="1.4" stroke-linejoin="round"/>
</svg>
