<svg width="14" height="14" viewBox="0 0 14 14" fill="none" xmlns="http://www.w3.org/2000/svg">
<path d="M7 14C3.1339 14 0 10.8661 0 7C0 3.1339 3.1339 0 7 0C10.8661 0 14 3.1339 14 7C14 10.8661 10.8661 14 7 14ZM7 12.6C8.48521 12.6 9.90959 12.01 10.9598 10.9598C12.01 9.90959 12.6 8.48521 12.6 7C12.6 5.51479 12.01 4.09041 10.9598 3.0402C9.90959 1.99 8.48521 1.4 7 1.4C5.51479 1.4 4.09041 1.99 3.0402 3.0402C1.99 4.09041 1.4 5.51479 1.4 7C1.4 8.48521 1.99 9.90959 3.0402 10.9598C4.09041 12.01 5.51479 12.6 7 12.6ZM6.0354 4.4905L9.4507 6.7669C9.48911 6.79246 9.5206 6.82711 9.54239 6.86778C9.56417 6.90845 9.57557 6.95387 9.57557 7C9.57557 7.04613 9.56417 7.09155 9.54239 7.13222C9.5206 7.17289 9.48911 7.20754 9.4507 7.2331L6.0347 9.5095C5.99258 9.53742 5.94369 9.55342 5.89321 9.55581C5.84273 9.55819 5.79255 9.54687 5.74799 9.52304C5.70342 9.49922 5.66613 9.46378 5.64008 9.42048C5.61403 9.37718 5.60018 9.32763 5.6 9.2771V4.7229C5.60009 4.67226 5.61392 4.62258 5.64001 4.57918C5.6661 4.53577 5.70347 4.50025 5.74815 4.4764C5.79283 4.45256 5.84314 4.44127 5.89372 4.44375C5.94431 4.44624 5.99327 4.46239 6.0354 4.4905Z" fill="#F09B6E"/>
</svg>
