<svg width="9" height="12" viewBox="0 0 9 12" fill="none" xmlns="http://www.w3.org/2000/svg">
<path d="M8.50003 0H0.500031C0.225031 0 3.05176e-05 0.245455 3.05176e-05 0.545455V11.4545C3.05176e-05 11.7545 0.225031 12 0.500031 12H8.50003C8.77503 12 9.00003 11.7545 9.00003 11.4545V0.545455C9.00003 0.245455 8.77503 0 8.50003 0ZM4.50003 11.4C4.08503 11.4 3.75003 11.0345 3.75003 10.5818C3.75003 10.1291 4.08503 9.76364 4.50003 9.76364C4.91503 9.76364 5.25003 10.1291 5.25003 10.5818C5.25003 11.0345 4.91503 11.4 4.50003 11.4ZM8.00003 9.27273H1.00003V1.09091H8.00003V9.27273Z" fill="#555555"/>
</svg>
