<svg width="11" height="10" viewBox="0 0 11 10" fill="none" xmlns="http://www.w3.org/2000/svg">
<path d="M10.3328 7.45542V9.41975C10.3329 9.5604 10.2796 9.69583 10.1837 9.79873C10.0878 9.90162 9.95645 9.96432 9.81615 9.97417C9.57339 9.99083 9.37506 9.99972 9.22174 9.99972C4.31257 9.99972 0.333344 6.0205 0.333344 1.11132C0.333344 0.957999 0.341676 0.759677 0.358898 0.516913C0.368743 0.376612 0.431439 0.245267 0.534334 0.149382C0.63723 0.0534977 0.772665 0.000211088 0.913311 0.000274801H2.87765C2.94655 0.000205032 3.01303 0.0257505 3.06415 0.0719487C3.11528 0.118147 3.14741 0.1817 3.1543 0.250261C3.16708 0.378032 3.17874 0.479693 3.18985 0.55691C3.30025 1.32738 3.5265 2.07673 3.86093 2.77957C3.9137 2.89067 3.87926 3.02344 3.77926 3.09455L2.58044 3.95117C3.31343 5.6591 4.67452 7.02019 6.38245 7.75318L7.23796 6.55658C7.27293 6.50769 7.32395 6.47263 7.38212 6.4575C7.44029 6.44237 7.50192 6.44814 7.55628 6.4738C8.25903 6.8076 9.00818 7.03328 9.77837 7.14321C9.85559 7.15432 9.95725 7.16654 10.0839 7.17876C10.1524 7.18578 10.2158 7.21797 10.2619 7.26908C10.308 7.32019 10.3334 7.3866 10.3333 7.45542H10.3328Z" fill="#666666"/>
</svg>
