<svg width="20" height="20" viewBox="0 0 20 20" fill="none" xmlns="http://www.w3.org/2000/svg">
<path d="M18.1372 7.91411L10.6997 1.4063C10.2991 1.05578 9.70093 1.05578 9.30034 1.4063L1.86284 7.91411C1.63226 8.11587 1.5 8.40734 1.5 8.71372V17.7941C1.5 18.3809 1.9757 18.8566 2.5625 18.8566H6.8125C7.3993 18.8566 7.875 18.3809 7.875 17.7941V13.5441C7.875 12.9573 8.3507 12.4816 8.9375 12.4816H11.0625C11.6493 12.4816 12.125 12.9573 12.125 13.5441V17.7941C12.125 18.3809 12.6007 18.8566 13.1875 18.8566H17.4375C18.0243 18.8566 18.5 18.3809 18.5 17.7941V8.71372C18.5 8.40734 18.3677 8.11587 18.1372 7.91411Z" stroke="#555555" stroke-width="1.4" stroke-linecap="round" stroke-linejoin="round"/>
</svg>
