<svg width="17" height="18" viewBox="0 0 17 18" fill="none" xmlns="http://www.w3.org/2000/svg">
<path fill-rule="evenodd" clip-rule="evenodd" d="M2 3.84431C2 2.72911 2.90404 1.82507 4.01923 1.82507H6.90386C7.38179 1.82507 7.76924 2.21252 7.76924 2.69046C7.76924 3.1684 7.38179 3.55585 6.90386 3.55585H4.01923C3.85992 3.55585 3.73077 3.685 3.73077 3.84431V15.9597C3.73077 16.1191 3.85992 16.2482 4.01923 16.2482H6.90386C7.38179 16.2482 7.76924 16.6356 7.76924 17.1136C7.76924 17.5915 7.38179 17.979 6.90386 17.979H4.01923C2.90404 17.979 2 17.0749 2 15.9597V3.84431ZM14.0454 9.03663H7.4808C7.00287 9.03663 6.61542 9.42408 6.61542 9.90201C6.61542 10.38 7.00287 10.7674 7.4808 10.7674H14.0454L11.7727 13.0401C11.4348 13.3781 11.4348 13.9259 11.7727 14.2639C12.1107 14.6019 12.6586 14.6019 12.9965 14.2639L16.7465 10.5139C17.0845 10.176 17.0845 9.62804 16.7465 9.29009L12.9965 5.54008C12.6586 5.20213 12.1107 5.20213 11.7727 5.54008C11.4348 5.87803 11.4348 6.42597 11.7727 6.76393L14.0454 9.03663Z" fill="#AAAAAA"/>
</svg>
