<svg width="20" height="20" viewBox="0 0 20 20" fill="none" xmlns="http://www.w3.org/2000/svg">
<path d="M7.70134 11.646H2.15277C1.79226 11.646 1.5 11.9383 1.5 12.2988V17.8473C1.5 18.2078 1.79226 18.5001 2.15277 18.5001H7.70134C8.06186 18.5001 8.35412 18.2078 8.35412 17.8473V12.2988C8.35412 11.9383 8.06186 11.646 7.70134 11.646Z" stroke="#555555" stroke-width="1.4" stroke-linecap="round" stroke-linejoin="round"/>
<path d="M17.8473 11.646H12.2986C11.9381 11.646 11.6459 11.9383 11.6459 12.2988V17.8473C11.6459 18.2078 11.9381 18.5001 12.2986 18.5001H17.8473C18.2077 18.5001 18.4999 18.2078 18.4999 17.8473V12.2988C18.4999 11.9383 18.2077 11.646 17.8473 11.646Z" stroke="#555555" stroke-width="1.4" stroke-linecap="round" stroke-linejoin="round"/>
<path d="M7.70134 1.49991H2.15277C1.79226 1.49991 1.5 1.79217 1.5 2.15268V7.70126C1.5 8.06178 1.79226 8.35404 2.15277 8.35404H7.70134C8.06186 8.35404 8.35412 8.06178 8.35412 7.70126V2.15268C8.35412 1.79217 8.06186 1.49991 7.70134 1.49991Z" stroke="#555555" stroke-width="1.4" stroke-linecap="round" stroke-linejoin="round"/>
<path d="M11.5318 5.43287C11.1299 5.36296 11.1299 4.78597 11.5318 4.71605C12.9879 4.46273 14.146 3.35363 14.4621 1.90984L14.4863 1.79917C14.5733 1.40194 15.1389 1.39946 15.2293 1.79592L15.2587 1.9249C15.5865 3.36188 16.7449 4.4616 18.197 4.71421C18.601 4.7845 18.601 5.36443 18.197 5.43471C16.7449 5.68733 15.5865 6.78705 15.2587 8.22402L15.2293 8.35301C15.1389 8.74947 14.5733 8.74699 14.4863 8.34976L14.4621 8.23908C14.146 6.79529 12.9879 5.68621 11.5318 5.43287Z" stroke="#555555" stroke-width="1.4" stroke-linecap="round" stroke-linejoin="round"/>
</svg>
