<svg width="8" height="11" viewBox="0 0 8 11" fill="none" xmlns="http://www.w3.org/2000/svg">
<path d="M5.4 0C6.35867 0 7.14224 0.687157 7.19699 1.55328L7.2 1.64995V3.29991C7.2 3.44308 7.13923 3.57928 7.03225 3.68109L6.975 3.72897L4.56027 5.49954L6.975 7.27011C7.11734 7.37448 7.2 7.53302 7.2 7.70009V9.35005C7.19982 10.2612 6.39406 11 5.4 11H1.8C0.805989 10.9999 0.000180556 10.2611 0 9.35005V7.70009C0 7.53302 0.0826672 7.37448 0.225 7.27011L2.63973 5.49954L0.225 3.72897C0.103188 3.63952 0.0248871 3.51089 0.00502232 3.3708L0 3.29991V1.64995C6.39034e-08 0.771254 0.749591 0.0529463 1.69453 0.0027622L1.8 0H5.4ZM1.20033 7.96342V9.35005C1.20051 9.65359 1.46882 9.89962 1.8 9.89972H5.4L5.47031 9.89604C5.76863 9.86428 6.00051 9.63196 6.00067 9.35005V7.96434L3.6 6.20482L1.20033 7.96342ZM1.8 1.10028C1.4925 1.10037 1.23917 1.3122 1.20435 1.5855L1.20033 1.64995V2.19963H6.00067V1.64995C6.00067 1.3896 5.80269 1.17109 5.53761 1.11409L5.47031 1.10396L5.4 1.10028H1.8Z" fill="#8153D7"/>
</svg>
