<svg width="20" height="22" viewBox="0 0 20 22" fill="none" xmlns="http://www.w3.org/2000/svg">
<path d="M3.07595 4.60759L4.86105 5.13477C6.01024 5.47415 7.20936 4.78184 7.49004 3.61692L7.92656 1.80523C8.59372 1.65543 9.28763 1.57639 10 1.57639C10.7124 1.57639 11.4063 1.65543 12.0734 1.80523L12.51 3.61692C12.7906 4.78184 13.9898 5.47415 15.1389 5.13477L16.924 4.60759C17.8619 5.62297 18.5793 6.84509 19 8.19789L17.6489 9.48214C16.7804 10.3077 16.7804 11.6923 17.6489 12.5178L19 13.8021C18.5793 15.1549 17.8619 16.377 16.924 17.3924L15.1389 16.8652C13.9898 16.5258 12.7906 17.2181 12.51 18.3831L12.0734 20.1948C11.4063 20.3446 10.7124 20.4236 10 20.4236C9.28763 20.4236 8.59372 20.3446 7.92657 20.1948L7.49004 18.3831C7.20936 17.2181 6.01025 16.5258 4.86105 16.8652L3.07595 17.3924C2.13807 16.377 1.42073 15.1549 1 13.8021L2.35109 12.5178C3.2196 11.6923 3.21961 10.3077 2.3511 9.48214L1 8.19789C1.42073 6.8451 2.13807 5.62297 3.07595 4.60759Z" stroke="#555555" stroke-width="1.4" stroke-linejoin="round"/>
<path d="M13.1412 11C13.1412 12.7348 11.7348 14.1412 10 14.1412C8.26516 14.1412 6.8588 12.7348 6.8588 11C6.8588 9.26515 8.26516 7.85879 10 7.85879C11.7348 7.85879 13.1412 9.26515 13.1412 11Z" stroke="#555555" stroke-width="1.4" stroke-linejoin="round"/>
</svg>
