<svg width="10" height="10" viewBox="0 0 10 10" fill="none" xmlns="http://www.w3.org/2000/svg">
<path d="M9.99944 7.45539V9.41972C9.99951 9.56037 9.94622 9.6958 9.85034 9.7987C9.75445 9.90159 9.62311 9.96429 9.48281 9.97414C9.24004 9.9908 9.04172 9.99969 8.8884 9.99969C3.97922 9.99969 0 6.02047 0 1.11129C0 0.957969 0.00833287 0.759647 0.0255541 0.516882C0.0353994 0.376581 0.0980952 0.245237 0.200991 0.149352C0.303886 0.0534672 0.439322 0.00018057 0.579968 0.000244283H2.5443C2.61321 0.000174514 2.67968 0.02572 2.73081 0.0719182C2.78193 0.118116 2.81406 0.181669 2.82095 0.25023C2.83373 0.378001 2.8454 0.479662 2.85651 0.55688C2.96691 1.32735 3.19316 2.0767 3.52758 2.77953C3.58036 2.89064 3.54591 3.02341 3.44592 3.09452L2.2471 3.95114C2.98009 5.65907 4.34117 7.02016 6.04911 7.75315L6.90462 6.55655C6.93958 6.50766 6.9906 6.4726 7.04877 6.45747C7.10694 6.44234 7.16858 6.44811 7.22293 6.47377C7.92568 6.80757 8.67484 7.03325 9.44503 7.14318C9.52225 7.15429 9.62391 7.16651 9.75057 7.17873C9.81903 7.18575 9.88245 7.21794 9.92853 7.26905C9.97462 7.32016 10.0001 7.38657 10 7.45539H9.99944Z" fill="#777777"/>
</svg>
