<svg width="20" height="20" viewBox="0 0 20 20" fill="none" xmlns="http://www.w3.org/2000/svg">
<path d="M9.30769 17.6152C13.8959 17.6152 17.6154 13.8958 17.6154 9.30754C17.6154 4.71933 13.8959 0.999847 9.30769 0.999847C4.71948 0.999847 1 4.71933 1 9.30754C1 13.8958 4.71948 17.6152 9.30769 17.6152Z" stroke="#555555" stroke-width="1.4" stroke-linecap="round" stroke-linejoin="round"/>
<path d="M15.1784 15.1786L19 19.0001" stroke="#555555" stroke-width="1.4" stroke-linecap="round" stroke-linejoin="round"/>
<path d="M5.08402 9.76185C4.57475 9.67325 4.57475 8.94217 5.08402 8.85357C6.92904 8.53259 8.39648 7.12729 8.79694 5.29789L8.82764 5.15766C8.93782 4.65433 9.65449 4.65121 9.76906 5.15354L9.80634 5.31697C10.2216 7.13773 11.6895 8.53116 13.5294 8.85126C14.0412 8.9403 14.0412 9.67512 13.5294 9.76417C11.6895 10.0843 10.2216 11.4777 9.80634 13.2985L9.76906 13.4619C9.65449 13.9642 8.93782 13.9611 8.82764 13.4578L8.79694 13.3175C8.39648 11.4881 6.92904 10.0828 5.08402 9.76185Z" stroke="#555555" stroke-width="1.4" stroke-linecap="round" stroke-linejoin="round"/>
</svg>
