<svg width="10" height="12" viewBox="0 0 10 12" fill="none" xmlns="http://www.w3.org/2000/svg">
<path d="M9.27273 0H0.545455C0.245455 0 0 0.245455 0 0.545455V11.4545C0 11.7545 0.245455 12 0.545455 12H9.27273C9.57273 12 9.81818 11.7545 9.81818 11.4545V0.545455C9.81818 0.245455 9.57273 0 9.27273 0ZM4.90909 11.4C4.45636 11.4 4.09091 11.0345 4.09091 10.5818C4.09091 10.1291 4.45636 9.76364 4.90909 9.76364C5.36182 9.76364 5.72727 10.1291 5.72727 10.5818C5.72727 11.0345 5.36182 11.4 4.90909 11.4ZM8.72727 9.27273H1.09091V1.09091H8.72727V9.27273Z" fill="#777777"/>
</svg>
