<svg width="13" height="13" viewBox="0 0 13 13" fill="none" xmlns="http://www.w3.org/2000/svg">
<path d="M11.485 9.665C11.485 9.845 11.445 10.03 11.36 10.21C11.275 10.39 11.165 10.56 11.02 10.72C10.775 10.99 10.505 11.185 10.2 11.31C9.9 11.435 9.575 11.5 9.225 11.5C8.715 11.5 8.17 11.38 7.595 11.135C7.02 10.89 6.445 10.56 5.875 10.145C5.3 9.725 4.755 9.26 4.235 8.745C3.72 8.225 3.255 7.68 2.84 7.11C2.43 6.54 2.1 5.97 1.86 5.405C1.62 4.835 1.5 4.29 1.5 3.77C1.5 3.43 1.56 3.105 1.68 2.805C1.8 2.5 1.99 2.22 2.255 1.97C2.575 1.655 2.925 1.5 3.295 1.5C3.435 1.5 3.575 1.53 3.7 1.59C3.83 1.65 3.945 1.74 4.035 1.87L5.195 3.505C5.285 3.63 5.35 3.745 5.395 3.855C5.44 3.96 5.465 4.065 5.465 4.16C5.465 4.28 5.43 4.4 5.36 4.515C5.295 4.63 5.2 4.75 5.08 4.87L4.7 5.265C4.645 5.32 4.62 5.385 4.62 5.465C4.62 5.505 4.625 5.54 4.635 5.58C4.65 5.62 4.665 5.65 4.675 5.68C4.765 5.845 4.92 6.06 5.14 6.32C5.365 6.58 5.605 6.845 5.865 7.11C6.135 7.375 6.395 7.62 6.66 7.845C6.92 8.065 7.135 8.215 7.305 8.305C7.33 8.315 7.36 8.33 7.395 8.345C7.435 8.36 7.475 8.365 7.52 8.365C7.605 8.365 7.67 8.335 7.725 8.28L8.105 7.905C8.23 7.78 8.35 7.685 8.465 7.625C8.58 7.555 8.695 7.52 8.82 7.52C8.915 7.52 9.015 7.54 9.125 7.585C9.235 7.63 9.35 7.695 9.475 7.78L11.13 8.955C11.26 9.045 11.35 9.15 11.405 9.275C11.455 9.4 11.485 9.525 11.485 9.665Z" stroke="#999999" stroke-width="1.1" stroke-miterlimit="10"/>
<path d="M9.75 5C9.75 4.7 9.515 4.24 9.165 3.865C8.845 3.52 8.42 3.25 8 3.25" stroke="#999999" stroke-width="1.1" stroke-linecap="round" stroke-linejoin="round"/>
<path d="M11.5 5C11.5 3.065 9.935 1.5 8 1.5" stroke="#999999" stroke-width="1.1" stroke-linecap="round" stroke-linejoin="round"/>
</svg>
