<svg width="17" height="18" viewBox="0 0 17 18" fill="none" xmlns="http://www.w3.org/2000/svg">
<path d="M8.5 17.5C3.80558 17.5 0 13.6944 0 9C0 4.30558 3.80558 0.5 8.5 0.5C13.1944 0.5 17 4.30558 17 9C17 13.6944 13.1944 17.5 8.5 17.5ZM8.5 15.8C12.2556 15.8 15.3 12.7556 15.3 9C15.3 5.24446 12.2556 2.2 8.5 2.2C4.74446 2.2 1.7 5.24446 1.7 9C1.7 12.7556 4.74446 15.8 8.5 15.8ZM7.32861 5.9524L11.4757 8.71712C11.6319 8.82125 11.6742 9.03238 11.5699 9.18861C11.545 9.22593 11.513 9.25798 11.4757 9.28288L7.32861 12.0476C7.17238 12.1518 6.96125 12.1096 6.85712 11.9533C6.81989 11.8975 6.8 11.8319 6.8 11.7647V6.2353C6.8 6.04752 6.95223 5.8953 7.14 5.8953C7.20715 5.8953 7.27277 5.91516 7.32861 5.9524Z" fill="#448FF1"/>
</svg>
