<svg width="14" height="15" viewBox="0 0 14 15" fill="none" xmlns="http://www.w3.org/2000/svg">
<path fill-rule="evenodd" clip-rule="evenodd" d="M1.625 2.81055C1.625 1.90445 2.35953 1.16992 3.26563 1.16992H5.60938C5.9977 1.16992 6.31251 1.48473 6.31251 1.87305C6.31251 2.26137 5.9977 2.57617 5.60938 2.57617H3.26563C3.13619 2.57617 3.03125 2.68111 3.03125 2.81055V12.6543C3.03125 12.7838 3.13619 12.8887 3.26563 12.8887H5.60938C5.9977 12.8887 6.31251 13.2035 6.31251 13.5918C6.31251 13.9801 5.9977 14.2949 5.60938 14.2949H3.26563C2.35953 14.2949 1.625 13.5604 1.625 12.6543V2.81055ZM11.4119 7.02931H6.07815C5.68983 7.02931 5.37503 7.34411 5.37503 7.73243C5.37503 8.12077 5.68983 8.43556 6.07815 8.43556H11.4119L9.56536 10.2822C9.29076 10.5568 9.29076 11.0019 9.56536 11.2765C9.83995 11.5511 10.2851 11.5511 10.5597 11.2765L13.6066 8.22962C13.8811 7.95503 13.8811 7.50983 13.6066 7.23525L10.5597 4.18837C10.2851 3.91378 9.83995 3.91378 9.56536 4.18837C9.29076 4.46295 9.29076 4.90815 9.56536 5.18274L11.4119 7.02931Z" fill="#9D9D9D"/>
</svg>
