<svg width="18" height="18" viewBox="0 0 18 18" fill="none" xmlns="http://www.w3.org/2000/svg">
<path d="M16.6154 8.77094H16.4862C15.9554 6.39863 13.8369 4.6171 11.3077 4.6171H9.69231V4.02633C10.4954 3.74017 11.0769 2.97863 11.0769 2.07863C11.0769 0.934018 10.1446 0.00171045 9 0.00171045C7.85539 0.00171045 6.92308 0.934018 6.92308 2.07863C6.92308 2.97863 7.50462 3.74017 8.30769 4.02633V4.6171H6.69231C4.16308 4.6171 2.04462 6.39863 1.51385 8.77094H1.38462C0.623077 8.77094 0 9.39402 0 10.1556V11.5402C0 12.3017 0.623077 12.9248 1.38462 12.9248H1.63846C2.18308 14.6233 3.55846 15.9433 5.28462 16.4233C5.15539 16.6956 5.07692 16.9909 5.07692 17.3094C5.07692 17.6925 5.38615 18.0017 5.76923 18.0017H12.2308C12.6138 18.0017 12.9231 17.6925 12.9231 17.3094C12.9231 16.9909 12.8446 16.6909 12.7154 16.4233C14.4415 15.9479 15.8169 14.6233 16.3615 12.9248H16.6154C17.3769 12.9248 18 12.3017 18 11.5402V10.1556C18 9.39402 17.3769 8.77094 16.6154 8.77094ZM9 1.38633C9.38308 1.38633 9.69231 1.69556 9.69231 2.07863C9.69231 2.46171 9.38308 2.77094 9 2.77094C8.61692 2.77094 8.30769 2.46171 8.30769 2.07863C8.30769 1.69556 8.61692 1.38633 9 1.38633ZM11.3077 15.2325H6.69231C4.52769 15.2325 2.76923 13.474 2.76923 11.3094V9.92479C2.76923 7.76017 4.52769 6.00171 6.69231 6.00171H11.3077C13.4723 6.00171 15.2308 7.76017 15.2308 9.92479V11.3094C15.2308 13.474 13.4723 15.2325 11.3077 15.2325Z" fill="#097FE8"/>
<path d="M6.46154 7.84786C5.7 7.84786 5.07692 8.47094 5.07692 9.23248V10.6171C5.07692 11.3786 5.7 12.0017 6.46154 12.0017C7.22308 12.0017 7.84615 11.3786 7.84615 10.6171V9.23248C7.84615 8.47094 7.22308 7.84786 6.46154 7.84786Z" fill="#097FE8"/>
<path d="M11.5385 7.84786C10.7769 7.84786 10.1538 8.47094 10.1538 9.23248V10.6171C10.1538 11.3786 10.7769 12.0017 11.5385 12.0017C12.3 12.0017 12.9231 11.3786 12.9231 10.6171V9.23248C12.9231 8.47094 12.3 7.84786 11.5385 7.84786Z" fill="#097FE8"/>
<path d="M4.16769 1.3494L5.55231 1.81094C5.62615 1.83402 5.7 1.84786 5.76923 1.84786C6.06 1.84786 6.32769 1.66325 6.42462 1.37248C6.54462 1.00786 6.35077 0.615557 5.98615 0.495557L4.60154 0.0340183C4.24154 -0.0859817 3.84923 0.107864 3.72462 0.47248C3.6 0.837095 3.79846 1.2294 4.16308 1.3494H4.16769Z" fill="#097FE8"/>
<path d="M4.38462 4.15556C4.45846 4.15556 4.53231 4.14633 4.60154 4.11863L5.98615 3.6571C6.35077 3.5371 6.54462 3.14479 6.42462 2.78017C6.30462 2.41556 5.91231 2.22171 5.54769 2.34171L4.16308 2.80325C3.79846 2.92325 3.60462 3.31556 3.72462 3.68017C3.82154 3.97094 4.08923 4.15556 4.38 4.15556H4.38462Z" fill="#097FE8"/>
<path d="M12.2308 1.84786C12.3046 1.84786 12.3785 1.83863 12.4477 1.81094L13.8323 1.3494C14.1969 1.2294 14.3908 0.837095 14.2708 0.47248C14.1508 0.107864 13.7585 -0.0859817 13.3938 0.0340183L12.0092 0.495557C11.6446 0.615557 11.4508 1.00786 11.5708 1.37248C11.6677 1.66325 11.9354 1.84786 12.2262 1.84786H12.2308Z" fill="#097FE8"/>
<path d="M12.0138 3.6571L13.3985 4.11863C13.4723 4.14171 13.5462 4.15556 13.6154 4.15556C13.9062 4.15556 14.1738 3.97094 14.2708 3.68017C14.3908 3.31556 14.1969 2.92325 13.8323 2.80325L12.4477 2.34171C12.0877 2.22171 11.6908 2.41556 11.5708 2.78017C11.4508 3.14479 11.6446 3.5371 12.0092 3.6571H12.0138Z" fill="#097FE8"/>
</svg>
